<svg t="1669978606957" class="icon" viewBox="0 0 1691 1024" version="1.1" xmlns="http://www.w3.org/2000/svg" p-id="6928" width="200" height="200"><path d="M624.862609 667.469913L623.304348 890.701913h445.217391l-1.736348-223.232z" fill="#0C0058" p-id="6929"></path><path d="M1113.043478 1024l-131.116521-253.106087c-72.080696-139.130435-200.347826-139.130435-272.606609 0L567.340522 1024H89.043478V133.565217h1513.739131v890.434783H1113.043478z" fill="#FF6E6E" p-id="6930"></path><path d="M1379.951304 133.030957L1380.173913 0H311.652174l0.222609 133.030957h1068.076521zM1602.782609 400.695652h89.043478v311.652174h-89.043478V400.695652zM0 400.695652h89.043478v311.652174H0V400.695652z m467.478261 44.521739a111.304348 111.304348 0 1 1 0 222.608696 111.304348 111.304348 0 0 1 0-222.608696z m756.869565 0a111.304348 111.304348 0 1 1 0 222.608696 111.304348 111.304348 0 0 1 0-222.608696z" fill="#0C0058" p-id="6931"></path></svg>