<svg xmlns="http://www.w3.org/2000/svg" width="1024" height="1024" viewBox="-10 -4 1024 1024" fill="#fff">
    <path transform="scale(0.0220625 0.0220625)" d="M358.4 358.4h-204.8v307.2h204.8l256 256v-819.2l-256 256z"></path>
    <path transform="scale(0.0220625 0.0220625)" d="M 795.648 693.248 C 795.648 693.248 795.648 693.248 722.9440000000001 620.5440000000001C 750.7 592.7550000000001 767.8650000000001 554.3820000000001 767.8650000000001 512.0000000000001C 767.8650000000001 469.61800000000017 750.7000000000002 431.2450000000001 722.9430000000001 403.4540000000001C 722.9430000000001 403.4540000000001 722.9430000000001 403.4540000000001 722.945 403.45600000000013C 722.945 403.45600000000013 722.945 403.45600000000013 795.649 330.7520000000001C 842.362 376.98700000000014 871.288 441.1150000000001 871.288 512.0000000000001C 871.288 582.885 842.362 647.0130000000001 795.671 693.2270000000001C 795.671 693.2270000000001 795.671 693.2270000000001 795.6500000000001 693.248C 795.648 693.248 795.648 693.248 795.648 693.248M 795.648 693.248 C 795.648 693.248 795.648 693.248 722.9440000000001 620.5440000000001C 750.7 592.7550000000001 767.8650000000001 554.3820000000001 767.8650000000001 512.0000000000001C 767.8650000000001 469.61800000000017 750.7000000000002 431.2450000000001 722.9430000000001 403.4540000000001C 722.9430000000001 403.4540000000001 722.9430000000001 403.4540000000001 722.945 403.45600000000013C 722.945 403.45600000000013 722.945 403.45600000000013 795.649 330.7520000000001C 842.362 376.98700000000014 871.288 441.1150000000001 871.288 512.0000000000001C 871.288 582.885 842.362 647.0130000000001 795.671 693.2270000000001C 795.671 693.2270000000001 795.671 693.2270000000001 795.6500000000001 693.248C 795.648 693.248 795.648 693.248 795.648 693.248"></path>
</svg>